<mxfile host="app.diagrams.net" modified="2023-06-13T14:37:28.674Z" agent="Mozilla/5.0 (Macintosh; Intel Mac OS X 10_15_7) AppleWebKit/537.36 (KHTML, like Gecko) Chrome/114.0.0.0 Safari/537.36" etag="5mFvJwbgb8QPo8Bib3G-" version="21.2.8" type="device">
  <diagram name="Page-1" id="qSoO9OGEpyMeIoAATHfJ">
    <mxGraphModel dx="1060" dy="684" grid="0" gridSize="10" guides="1" tooltips="1" connect="1" arrows="1" fold="1" page="1" pageScale="1" pageWidth="850" pageHeight="1400" math="0" shadow="0">
      <root>
        <mxCell id="0" />
        <mxCell id="1" parent="0" />
        <mxCell id="akvTD7Lf4Zu6DguzQq4Z-4" value="" style="edgeStyle=orthogonalEdgeStyle;rounded=0;orthogonalLoop=1;jettySize=auto;html=1;" edge="1" parent="1">
          <mxGeometry relative="1" as="geometry">
            <mxPoint x="163" y="70" as="sourcePoint" />
            <mxPoint x="262" y="70" as="targetPoint" />
          </mxGeometry>
        </mxCell>
        <mxCell id="akvTD7Lf4Zu6DguzQq4Z-1" value="start" style="ellipse;whiteSpace=wrap;html=1;" vertex="1" parent="1">
          <mxGeometry x="60" y="30" width="120" height="80" as="geometry" />
        </mxCell>
        <mxCell id="akvTD7Lf4Zu6DguzQq4Z-8" value="" style="edgeStyle=orthogonalEdgeStyle;rounded=0;orthogonalLoop=1;jettySize=auto;html=1;" edge="1" parent="1">
          <mxGeometry relative="1" as="geometry">
            <mxPoint x="419.0000000000002" y="72" as="sourcePoint" />
            <mxPoint x="516" y="72" as="targetPoint" />
          </mxGeometry>
        </mxCell>
        <mxCell id="akvTD7Lf4Zu6DguzQq4Z-6" value="prompts user to display in cm/inches" style="shape=display;whiteSpace=wrap;html=1;" vertex="1" parent="1">
          <mxGeometry x="283" y="41" width="153" height="62" as="geometry" />
        </mxCell>
        <mxCell id="akvTD7Lf4Zu6DguzQq4Z-10" value="" style="edgeStyle=orthogonalEdgeStyle;rounded=0;orthogonalLoop=1;jettySize=auto;html=1;" edge="1" parent="1" target="akvTD7Lf4Zu6DguzQq4Z-9">
          <mxGeometry relative="1" as="geometry">
            <mxPoint x="566" y="102" as="sourcePoint" />
          </mxGeometry>
        </mxCell>
        <mxCell id="akvTD7Lf4Zu6DguzQq4Z-7" value="read user input" style="html=1;strokeWidth=2;shape=manualInput;whiteSpace=wrap;rounded=1;size=26;arcSize=11;" vertex="1" parent="1">
          <mxGeometry x="533" y="42" width="100" height="60" as="geometry" />
        </mxCell>
        <mxCell id="akvTD7Lf4Zu6DguzQq4Z-13" value="" style="edgeStyle=orthogonalEdgeStyle;rounded=0;orthogonalLoop=1;jettySize=auto;html=1;" edge="1" parent="1" source="akvTD7Lf4Zu6DguzQq4Z-9" target="akvTD7Lf4Zu6DguzQq4Z-12">
          <mxGeometry relative="1" as="geometry" />
        </mxCell>
        <mxCell id="akvTD7Lf4Zu6DguzQq4Z-16" style="edgeStyle=orthogonalEdgeStyle;rounded=0;orthogonalLoop=1;jettySize=auto;html=1;" edge="1" parent="1" source="akvTD7Lf4Zu6DguzQq4Z-9">
          <mxGeometry relative="1" as="geometry">
            <mxPoint x="114" y="319" as="targetPoint" />
          </mxGeometry>
        </mxCell>
        <mxCell id="akvTD7Lf4Zu6DguzQq4Z-9" value="check user value" style="rhombus;whiteSpace=wrap;html=1;strokeWidth=2;rounded=1;arcSize=11;" vertex="1" parent="1">
          <mxGeometry x="520.5" y="181" width="91" height="97" as="geometry" />
        </mxCell>
        <mxCell id="akvTD7Lf4Zu6DguzQq4Z-21" value="" style="edgeStyle=orthogonalEdgeStyle;rounded=0;orthogonalLoop=1;jettySize=auto;html=1;" edge="1" parent="1" source="akvTD7Lf4Zu6DguzQq4Z-12" target="akvTD7Lf4Zu6DguzQq4Z-20">
          <mxGeometry relative="1" as="geometry" />
        </mxCell>
        <mxCell id="akvTD7Lf4Zu6DguzQq4Z-12" value="user input width" style="shape=parallelogram;perimeter=parallelogramPerimeter;whiteSpace=wrap;html=1;fixedSize=1;" vertex="1" parent="1">
          <mxGeometry x="506" y="334" width="120" height="60" as="geometry" />
        </mxCell>
        <mxCell id="akvTD7Lf4Zu6DguzQq4Z-19" value="" style="edgeStyle=orthogonalEdgeStyle;rounded=0;orthogonalLoop=1;jettySize=auto;html=1;" edge="1" parent="1" source="akvTD7Lf4Zu6DguzQq4Z-17" target="akvTD7Lf4Zu6DguzQq4Z-18">
          <mxGeometry relative="1" as="geometry" />
        </mxCell>
        <mxCell id="akvTD7Lf4Zu6DguzQq4Z-17" value="user input width" style="shape=parallelogram;perimeter=parallelogramPerimeter;whiteSpace=wrap;html=1;fixedSize=1;" vertex="1" parent="1">
          <mxGeometry x="57" y="324" width="120" height="60" as="geometry" />
        </mxCell>
        <mxCell id="akvTD7Lf4Zu6DguzQq4Z-25" value="" style="edgeStyle=orthogonalEdgeStyle;rounded=0;orthogonalLoop=1;jettySize=auto;html=1;" edge="1" parent="1" source="akvTD7Lf4Zu6DguzQq4Z-18" target="akvTD7Lf4Zu6DguzQq4Z-23">
          <mxGeometry relative="1" as="geometry" />
        </mxCell>
        <mxCell id="akvTD7Lf4Zu6DguzQq4Z-18" value="user input length" style="shape=parallelogram;perimeter=parallelogramPerimeter;whiteSpace=wrap;html=1;fixedSize=1;" vertex="1" parent="1">
          <mxGeometry x="57" y="464" width="120" height="60" as="geometry" />
        </mxCell>
        <mxCell id="akvTD7Lf4Zu6DguzQq4Z-26" value="" style="edgeStyle=orthogonalEdgeStyle;rounded=0;orthogonalLoop=1;jettySize=auto;html=1;" edge="1" parent="1" source="akvTD7Lf4Zu6DguzQq4Z-20">
          <mxGeometry relative="1" as="geometry">
            <mxPoint x="566" y="588" as="targetPoint" />
          </mxGeometry>
        </mxCell>
        <mxCell id="akvTD7Lf4Zu6DguzQq4Z-20" value="user inout length" style="shape=parallelogram;perimeter=parallelogramPerimeter;whiteSpace=wrap;html=1;fixedSize=1;" vertex="1" parent="1">
          <mxGeometry x="506" y="474" width="120" height="60" as="geometry" />
        </mxCell>
        <mxCell id="akvTD7Lf4Zu6DguzQq4Z-30" value="" style="edgeStyle=orthogonalEdgeStyle;rounded=0;orthogonalLoop=1;jettySize=auto;html=1;" edge="1" parent="1" source="akvTD7Lf4Zu6DguzQq4Z-23" target="akvTD7Lf4Zu6DguzQq4Z-27">
          <mxGeometry relative="1" as="geometry" />
        </mxCell>
        <mxCell id="akvTD7Lf4Zu6DguzQq4Z-23" value="prompts user to display in cm/inches final time" style="shape=display;whiteSpace=wrap;html=1;" vertex="1" parent="1">
          <mxGeometry x="40.5" y="590" width="153" height="62" as="geometry" />
        </mxCell>
        <mxCell id="akvTD7Lf4Zu6DguzQq4Z-29" value="" style="edgeStyle=orthogonalEdgeStyle;rounded=0;orthogonalLoop=1;jettySize=auto;html=1;" edge="1" parent="1" target="akvTD7Lf4Zu6DguzQq4Z-28">
          <mxGeometry relative="1" as="geometry">
            <mxPoint x="566.0769230769229" y="650" as="sourcePoint" />
          </mxGeometry>
        </mxCell>
        <mxCell id="akvTD7Lf4Zu6DguzQq4Z-24" value="prompts user to display in cm/inches final time" style="shape=display;whiteSpace=wrap;html=1;" vertex="1" parent="1">
          <mxGeometry x="533.5" y="588" width="153" height="62" as="geometry" />
        </mxCell>
        <mxCell id="akvTD7Lf4Zu6DguzQq4Z-36" value="" style="edgeStyle=orthogonalEdgeStyle;rounded=0;orthogonalLoop=1;jettySize=auto;html=1;" edge="1" parent="1" source="akvTD7Lf4Zu6DguzQq4Z-27" target="akvTD7Lf4Zu6DguzQq4Z-34">
          <mxGeometry relative="1" as="geometry" />
        </mxCell>
        <mxCell id="akvTD7Lf4Zu6DguzQq4Z-27" value="read user input" style="html=1;strokeWidth=2;shape=manualInput;whiteSpace=wrap;rounded=1;size=26;arcSize=11;" vertex="1" parent="1">
          <mxGeometry x="67" y="684" width="100" height="60" as="geometry" />
        </mxCell>
        <mxCell id="akvTD7Lf4Zu6DguzQq4Z-37" value="" style="edgeStyle=orthogonalEdgeStyle;rounded=0;orthogonalLoop=1;jettySize=auto;html=1;" edge="1" parent="1" source="akvTD7Lf4Zu6DguzQq4Z-28">
          <mxGeometry relative="1" as="geometry">
            <mxPoint x="566" y="783.9999999999998" as="targetPoint" />
          </mxGeometry>
        </mxCell>
        <mxCell id="akvTD7Lf4Zu6DguzQq4Z-28" value="read user input" style="html=1;strokeWidth=2;shape=manualInput;whiteSpace=wrap;rounded=1;size=26;arcSize=11;" vertex="1" parent="1">
          <mxGeometry x="516" y="684" width="100" height="60" as="geometry" />
        </mxCell>
        <mxCell id="akvTD7Lf4Zu6DguzQq4Z-40" value="" style="edgeStyle=orthogonalEdgeStyle;rounded=0;orthogonalLoop=1;jettySize=auto;html=1;" edge="1" parent="1" source="akvTD7Lf4Zu6DguzQq4Z-34" target="akvTD7Lf4Zu6DguzQq4Z-38">
          <mxGeometry relative="1" as="geometry" />
        </mxCell>
        <mxCell id="akvTD7Lf4Zu6DguzQq4Z-42" style="edgeStyle=orthogonalEdgeStyle;rounded=0;orthogonalLoop=1;jettySize=auto;html=1;entryX=0;entryY=0;entryDx=80.125;entryDy=0;entryPerimeter=0;" edge="1" parent="1" source="akvTD7Lf4Zu6DguzQq4Z-34" target="akvTD7Lf4Zu6DguzQq4Z-41">
          <mxGeometry relative="1" as="geometry">
            <mxPoint x="294.2307692307693" y="832.5" as="targetPoint" />
          </mxGeometry>
        </mxCell>
        <mxCell id="akvTD7Lf4Zu6DguzQq4Z-34" value="check user value" style="rhombus;whiteSpace=wrap;html=1;strokeWidth=2;rounded=1;arcSize=11;" vertex="1" parent="1">
          <mxGeometry x="71.5" y="784" width="91" height="97" as="geometry" />
        </mxCell>
        <mxCell id="akvTD7Lf4Zu6DguzQq4Z-46" value="" style="edgeStyle=orthogonalEdgeStyle;rounded=0;orthogonalLoop=1;jettySize=auto;html=1;" edge="1" parent="1" source="akvTD7Lf4Zu6DguzQq4Z-35" target="akvTD7Lf4Zu6DguzQq4Z-45">
          <mxGeometry relative="1" as="geometry" />
        </mxCell>
        <mxCell id="akvTD7Lf4Zu6DguzQq4Z-47" style="edgeStyle=orthogonalEdgeStyle;rounded=0;orthogonalLoop=1;jettySize=auto;html=1;" edge="1" parent="1" source="akvTD7Lf4Zu6DguzQq4Z-35">
          <mxGeometry relative="1" as="geometry">
            <mxPoint x="751" y="928" as="targetPoint" />
          </mxGeometry>
        </mxCell>
        <mxCell id="akvTD7Lf4Zu6DguzQq4Z-35" value="check user value" style="rhombus;whiteSpace=wrap;html=1;strokeWidth=2;rounded=1;arcSize=11;" vertex="1" parent="1">
          <mxGeometry x="519" y="787" width="91" height="97" as="geometry" />
        </mxCell>
        <mxCell id="akvTD7Lf4Zu6DguzQq4Z-38" value="Display rectangle area in cm" style="shape=display;whiteSpace=wrap;html=1;" vertex="1" parent="1">
          <mxGeometry x="36.75" y="937" width="160.5" height="64" as="geometry" />
        </mxCell>
        <mxCell id="akvTD7Lf4Zu6DguzQq4Z-41" value="display rectangle area in inches" style="shape=display;whiteSpace=wrap;html=1;" vertex="1" parent="1">
          <mxGeometry x="251" y="944" width="153" height="62" as="geometry" />
        </mxCell>
        <mxCell id="akvTD7Lf4Zu6DguzQq4Z-43" value="end" style="ellipse;whiteSpace=wrap;html=1;" vertex="1" parent="1">
          <mxGeometry x="356" y="1130" width="120" height="80" as="geometry" />
        </mxCell>
        <mxCell id="akvTD7Lf4Zu6DguzQq4Z-45" value="Display rectangle area in inchs" style="shape=display;whiteSpace=wrap;html=1;" vertex="1" parent="1">
          <mxGeometry x="485.75" y="934" width="160.5" height="64" as="geometry" />
        </mxCell>
        <mxCell id="akvTD7Lf4Zu6DguzQq4Z-48" value="Display rectangle area in cm" style="shape=display;whiteSpace=wrap;html=1;" vertex="1" parent="1">
          <mxGeometry x="667" y="928" width="160.5" height="64" as="geometry" />
        </mxCell>
        <mxCell id="akvTD7Lf4Zu6DguzQq4Z-52" value="" style="endArrow=classic;html=1;rounded=0;exitX=0;exitY=0;exitDx=84.3125;exitDy=64;exitPerimeter=0;" edge="1" parent="1" source="akvTD7Lf4Zu6DguzQq4Z-38">
          <mxGeometry width="50" height="50" relative="1" as="geometry">
            <mxPoint x="169" y="1164" as="sourcePoint" />
            <mxPoint x="354" y="1170" as="targetPoint" />
          </mxGeometry>
        </mxCell>
        <mxCell id="akvTD7Lf4Zu6DguzQq4Z-53" value="" style="endArrow=classic;html=1;rounded=0;entryX=0.281;entryY=0.054;entryDx=0;entryDy=0;entryPerimeter=0;exitX=0;exitY=0;exitDx=80.125;exitDy=62.00000000000001;exitPerimeter=0;" edge="1" parent="1" source="akvTD7Lf4Zu6DguzQq4Z-41" target="akvTD7Lf4Zu6DguzQq4Z-43">
          <mxGeometry width="50" height="50" relative="1" as="geometry">
            <mxPoint x="332" y="1072" as="sourcePoint" />
            <mxPoint x="382" y="1022" as="targetPoint" />
          </mxGeometry>
        </mxCell>
        <mxCell id="akvTD7Lf4Zu6DguzQq4Z-55" value="" style="endArrow=classic;html=1;rounded=0;entryX=1;entryY=0;entryDx=0;entryDy=0;exitX=0;exitY=0;exitDx=84.3125;exitDy=64;exitPerimeter=0;" edge="1" parent="1" source="akvTD7Lf4Zu6DguzQq4Z-45" target="akvTD7Lf4Zu6DguzQq4Z-43">
          <mxGeometry width="50" height="50" relative="1" as="geometry">
            <mxPoint x="502" y="1064" as="sourcePoint" />
            <mxPoint x="552" y="1014" as="targetPoint" />
          </mxGeometry>
        </mxCell>
        <mxCell id="akvTD7Lf4Zu6DguzQq4Z-57" value="" style="endArrow=classic;html=1;rounded=0;entryX=1;entryY=0.5;entryDx=0;entryDy=0;exitX=0;exitY=0;exitDx=84.3125;exitDy=64;exitPerimeter=0;" edge="1" parent="1" source="akvTD7Lf4Zu6DguzQq4Z-48" target="akvTD7Lf4Zu6DguzQq4Z-43">
          <mxGeometry width="50" height="50" relative="1" as="geometry">
            <mxPoint x="660" y="1118" as="sourcePoint" />
            <mxPoint x="710" y="1068" as="targetPoint" />
          </mxGeometry>
        </mxCell>
      </root>
    </mxGraphModel>
  </diagram>
</mxfile>
